<?xml version="1.0" encoding="UTF-8" standalone="no"?>
<!-- Created with Inkscape (http://www.inkscape.org/) -->

<svg
   width="150mm"
   height="150mm"
   viewBox="0 0 150 150"
   version="1.1"
   id="svg1"
   xmlns:inkscape="http://www.inkscape.org/namespaces/inkscape"
   xmlns:sodipodi="http://sodipodi.sourceforge.net/DTD/sodipodi-0.dtd"
   xmlns:xlink="http://www.w3.org/1999/xlink"
   xmlns="http://www.w3.org/2000/svg"
   xmlns:svg="http://www.w3.org/2000/svg">
  <sodipodi:namedview
     id="namedview1"
     pagecolor="#000000"
     bordercolor="#000000"
     borderopacity="1"
     inkscape:showpageshadow="2"
     inkscape:pageopacity="0"
     inkscape:pagecheckerboard="0"
     inkscape:deskcolor="#1f1f1f"
     inkscape:document-units="mm" />
  <defs
     id="defs1">
    <linearGradient
       id="linearGradient31"
       inkscape:collect="always">
      <stop
         style="stop-color:#c1dbff;stop-opacity:1;"
         offset="0.47447449"
         id="stop32" />
      <stop
         style="stop-color:#ffffff;stop-opacity:1;"
         offset="1"
         id="stop33" />
    </linearGradient>
    <linearGradient
       id="linearGradient2"
       inkscape:collect="always">
      <stop
         style="stop-color:#0534ff;stop-opacity:1;"
         offset="0.02702701"
         id="stop3" />
      <stop
         style="stop-color:#006bd2;stop-opacity:1;"
         offset="0.14939938"
         id="stop31" />
      <stop
         style="stop-color:#fa2dff;stop-opacity:1;"
         offset="0.5990991"
         id="stop4" />
      <stop
         style="stop-color:#ff5c4c;stop-opacity:1;"
         offset="0.94594592"
         id="stop2" />
    </linearGradient>
    <linearGradient
       inkscape:collect="always"
       xlink:href="#linearGradient2"
       id="linearGradient3"
       x1="6.166316"
       y1="140.86674"
       x2="140.30675"
       y2="8.3578539"
       gradientUnits="userSpaceOnUse"
       gradientTransform="matrix(0.91912385,0,0,0.91912385,7.686571,6.9512106)" />
    <filter
       inkscape:collect="always"
       style="color-interpolation-filters:sRGB"
       id="filter31"
       x="-0.0029817563"
       y="-0.0030184683"
       width="1.0059635"
       height="1.0060369">
      <feGaussianBlur
         inkscape:collect="always"
         stdDeviation="0.15317731"
         id="feGaussianBlur31" />
    </filter>
    <radialGradient
       inkscape:collect="always"
       xlink:href="#linearGradient31"
       id="radialGradient33"
       cx="75"
       cy="75"
       fx="75"
       fy="75"
       r="70.544258"
       gradientUnits="userSpaceOnUse" />
  </defs>
  <g
     inkscape:label="Layer 1"
     inkscape:groupmode="layer"
     id="layer1">
    <rect
       style="display:inline;fill:url(#radialGradient33);fill-opacity:1;stroke-width:1.79903;stroke-linecap:round;stroke-miterlimit:3.5"
       id="rect4"
       width="141.08852"
       height="141.08852"
       x="4.4557419"
       y="4.4557419"
       ry="27.697216" />
    <path
       style="font-size:39.8257px;line-height:1;font-family:'Segoe UI Emoji';-inkscape-font-specification:'Segoe UI Emoji, Normal';opacity:0.929577;fill:#000000;fill-opacity:1;stroke:none;stroke-width:1;stroke-linecap:round;stroke-miterlimit:3.5;stroke-dasharray:none;stroke-opacity:1;filter:url(#filter31)"
       d="m 106.28838,55.269861 c 0,-3.743252 -1.33136,-6.926942 -3.99408,-9.551073 -2.662727,-2.662723 -5.846389,-3.994083 -9.551027,-3.994088 -3.781836,-2e-6 -7.004119,1.331363 -9.666849,3.994088 -2.624135,2.624136 -3.936203,5.807826 -3.936203,9.551073 0,3.743249 1.312068,6.946236 3.936203,9.608959 2.66273,2.624132 5.885003,3.936201 9.666839,3.9362 3.704648,0 6.88831,-1.312066 9.551037,-3.936197 2.66272,-2.662729 3.99408,-5.865716 3.99408,-9.608962 z M 97.547595,18.975817 c -2.199618,0.926167 -4.611499,2.00669 -7.235635,3.241577 -5.209676,2.431181 -10.940322,5.537697 -17.191935,9.319532 -6.213011,3.743247 -12.098014,8.200413 -17.655,13.371495 -5.441218,5.055317 -9.686134,9.512487 -12.734765,13.371502 -3.048624,3.859017 -5.460509,7.544379 -7.23566,11.056087 -0.270131,0.501674 -0.501672,1.003347 -0.694625,1.505018 l -16.265792,5.962213 c -1.427837,0.540262 -2.315409,1.562903 -2.66272,3.067921 -0.308721,1.466426 0.07718,2.720607 1.157705,3.762543 l 9.203758,9.203755 v 0.05791 l 3.183692,3.183698 c 0,0.0386 -0.01931,0.0579 -0.0579,0.0579 v 0.05791 c -0.771805,0.7718 -1.312066,1.678667 -1.620789,2.720611 -0.848982,0.0772 -1.640081,0.192927 -2.373297,0.347297 -0.694621,0.15438 -1.312063,0.289437 -1.852327,0.405197 -0.578853,0.15437 -1.099821,0.30873 -1.562903,0.463087 -0.19295,0.0772 -0.347308,0.13505 -0.463082,0.17366 l -0.115756,0.0579 h -0.05791 v 0 0.0579 0 c -1.852329,0.73322 -3.453823,1.75586 -4.804479,3.06793 -1.350659,1.31206 -2.489065,2.7399 -3.415229,4.28351 -0.926164,1.5436 -1.69797,3.1644 -2.315414,4.86236 -0.578852,1.69797 -1.0419337,3.37664 -1.3892444,5.03602 -0.6560307,3.31876 -0.9068667,6.46386 -0.7525097,9.4353 0.07718,1.50502 0.289419,2.83638 0.6367417,3.99408 0.11577,0.54027 0.3280177,1.13842 0.6367357,1.79446 0.3087207,0.69463 0.7525057,1.33135 1.3313597,1.91021 0.771804,0.7718 1.601494,1.23487 2.48907,1.38924 0.887572,0.15438 1.543605,0.23156 1.968097,0.23156 0.540262,0 1.080524,-0.0578 1.620786,-0.17365 0.578855,-0.0772 1.119119,-0.17368 1.620789,-0.28944 0.771805,-0.19294 1.543607,-0.42449 2.315412,-0.69462 0.810394,-0.27013 1.543609,-0.54027 2.199639,-0.8104 0.07718,0.11576 0.173642,0.23156 0.289422,0.34732 0.694625,0.65603 1.408545,1.06121 2.141754,1.2156 0.771805,0.19294 1.312067,0.28941 1.620788,0.28941 0.848984,0.0772 1.794443,0.0193 2.836379,-0.17365 1.968099,-0.38591 4.013381,-1.08053 6.135841,-2.08386 2.08387,-1.04195 4.20633,-2.52768 6.367381,-4.45718 2.19964,-1.89093 3.801132,-4.30281 4.804479,-7.23565 l -9e-6,-0.058 c 0.07718,-0.19295 0.115756,-0.328 0.115756,-0.40518 0.03861,-0.0387 0.0579,-0.0966 0.0579,-0.17367 0.03859,-0.0385 0.0579,-0.0771 0.0579,-0.11577 1.968099,0.19296 3.666069,-0.42449 5.093909,-1.85232 v 0 l 0.0579,-0.0579 10.47723,10.41935 c 1.041938,1.08053 2.315421,1.44714 3.820431,1.09983 1.50501,-0.30874 2.508362,-1.17701 3.010029,-2.60484 l 6.714696,-18.11793 c 0.306105,-0.82594 1.466435,-0.8104 2.083865,-1.15772 3.511715,-1.89091 7.158486,-4.3028 10.940322,-7.23565 3.781836,-2.932864 8.084611,-6.791889 12.908369,-11.577078 4.93955,-4.939538 9.20375,-10.47723 12.79265,-16.613072 3.58889,-6.174425 6.54102,-11.905063 8.85644,-17.191917 1.15772,-2.701322 2.16107,-5.190397 3.01004,-7.467211 11.09928,-27.841927 0.14989,-42.4902807 -30.100305,-30.274013 z m 3.588995,7.525069 18.98639,19.10212 c -0.42449,1.196295 -0.90686,2.45047 -1.44713,3.762538 -0.50168,1.273481 -1.06124,2.604846 -1.67868,3.994088 -2.23824,5.093908 -5.01672,10.477238 -8.33546,16.149991 -3.31876,5.672759 -7.17779,10.708778 -11.577042,15.108059 -4.592224,4.592235 -8.644191,8.219714 -12.155897,10.882434 -3.47312,2.662716 -6.733988,4.843064 -9.782611,6.541044 -2.276817,1.23489 -4.553643,2.33471 -6.83046,3.29946 -2.238232,0.92616 -4.650123,1.91022 -7.235665,2.95215 -0.07721,0 -0.154339,0.0194 -0.231527,0.058 -0.0386,0.0385 -0.09648,0.0578 -0.17365,0.0578 l 8.103933,-21.996412 c 0.61744,-1.659377 0.578855,-3.22228 -0.115754,-4.688708 -0.694628,-1.466426 -1.77515,-2.546951 -3.241575,-3.241577 -1.466426,-0.69462 -3.029331,-0.733208 -4.688708,-0.115756 L 37.462849,86.93315 c 0.30872,-0.810395 0.636738,-1.73656 0.984049,-2.778495 0.11577,-0.308719 0.231546,-0.617441 0.347312,-0.926163 0.11577,-0.308722 0.231544,-0.617442 0.347311,-0.926163 0.578853,-1.659378 1.157705,-3.222281 1.736558,-4.688711 0.617444,-1.505015 1.312068,-3.010032 2.08387,-4.515049 1.466429,-2.932855 3.550301,-6.135841 6.251613,-9.608957 2.739904,-3.473106 6.714692,-7.640847 11.924369,-12.503212 5.132489,-4.746593 10.612296,-8.875743 16.439412,-12.387445 5.827117,-3.550295 11.249037,-6.502444 16.265772,-8.856451 1.312054,-0.61744 2.585526,-1.196293 3.82041,-1.736563 1.234874,-0.540261 2.392575,-1.041934 3.473105,-1.50502 z M 40.125547,115.81788 c 0.03861,0.19294 0.0579,0.42448 0.0579,0.69462 0.03859,0.46309 0.01929,0.88758 -0.0579,1.27346 -0.0386,0.3859 -0.07719,0.71392 -0.115757,0.98405 -0.03859,0.19296 -0.09649,0.38592 -0.173658,0.57887 v 0.0578 0.0579 l -0.0579,0.058 -0.0579,0.11576 c -0.46308,1.46642 -1.33136,2.77849 -2.604836,3.9362 -1.273475,1.19629 -2.701311,2.18034 -4.283511,2.95213 -0.733211,0.34733 -1.447131,0.63676 -2.141755,0.8683 -0.270132,-0.54027 -0.617442,-1.02265 -1.041934,-1.44713 -0.964754,-0.96477 -2.141755,-1.44715 -3.531003,-1.44715 -0.501672,0 -0.964754,0.0579 -1.389245,0.17367 -0.424493,0.11576 -0.771806,0.23155 -1.041938,0.34732 -0.270128,0.11575 -0.617442,0.27012 -1.041937,0.46306 -0.385899,0.19296 -0.791095,0.40519 -1.215589,0.63675 v 0 c -0.3859,0.19296 -0.713917,0.36662 -0.984049,0.52098 -0.347311,0.15435 -0.829687,0.3473 -1.447133,0.57885 -0.617442,0.23154 -1.254181,0.4438 -1.910214,0.63674 -0.03859,-0.34731 -0.07719,-0.75251 -0.115756,-1.21561 -0.0386,-1.00333 -0.0193,-2.14174 0.0579,-3.41521 0.07718,-1.23489 0.250827,-2.52766 0.520966,-3.87831 0.617442,-2.85568 1.524312,-5.28686 2.720609,-7.29354 1.157705,-1.9681 2.527657,-3.26088 4.109857,-3.87833 l -1.1e-5,-0.058 c 0.07718,0 0.154349,-0.0192 0.231532,-0.0578 0.308722,-0.11577 0.656033,-0.21226 1.041937,-0.28944 0.42449,-0.11577 0.926163,-0.23153 1.505018,-0.3473 0.617443,-0.11577 1.273475,-0.19295 1.968099,-0.23153 0.848982,-0.0387 1.659375,-0.0193 2.431181,0.058 z m -12.155909,12.21379 h 0.0579 z"
       id="path31"
       aria-label="🚀"
       sodipodi:nodetypes="scssscscsccccscccccccccccccccccccssscccccssscccccccccccccccscccccscscccccccccsscccccccsscccscccccccsccccccccccccccsssscsscscccccccccccccccc" />
    <path
       style="font-size:39.8257px;line-height:1;font-family:'Segoe UI Emoji';-inkscape-font-specification:'Segoe UI Emoji, Normal';fill:url(#linearGradient3);fill-opacity:1;stroke:#000000;stroke-width:1;stroke-linecap:round;stroke-miterlimit:3.5;stroke-dasharray:none;stroke-opacity:1"
       d="m 111.05091,55.269861 c 0,-3.743252 -1.33136,-6.926942 -3.99408,-9.551073 -2.66273,-2.662723 -5.84641,-3.994083 -9.551054,-3.994088 -3.781836,-2e-6 -7.004119,1.331363 -9.666849,3.994088 -2.624135,2.624136 -3.936203,5.807826 -3.936203,9.551073 0,3.743249 1.312068,6.946236 3.936203,9.608959 2.66273,2.624132 5.885003,3.936201 9.666839,3.9362 3.704654,0 6.888334,-1.312066 9.551064,-3.936197 2.66272,-2.662729 3.99408,-5.865716 3.99408,-9.608962 z m -8.7408,-36.294044 c -2.19963,0.926167 -4.611511,2.00669 -7.235647,3.241577 -5.209676,2.431181 -10.940322,5.537697 -17.191935,9.319532 -6.213011,3.743247 -12.098014,8.200413 -17.655,13.371495 -5.441218,5.055317 -9.686134,9.512487 -12.734765,13.371502 -3.048624,3.859017 -5.460509,7.544379 -7.23566,11.056087 -0.270131,0.501674 -0.501672,1.003347 -0.694625,1.505018 l -16.265792,5.962213 c -1.427837,0.540262 -2.315409,1.562903 -2.66272,3.067921 -0.308721,1.466426 0.07718,2.720607 1.157705,3.762543 l 9.203758,9.203755 v 0.05791 l 3.183692,3.183698 c 0,0.0386 -0.01931,0.0579 -0.0579,0.0579 v 0.05791 c -0.771805,0.771798 -1.312066,1.67867 -1.620789,2.720608 -0.848982,0.07721 -1.640081,0.192933 -2.373297,0.3473 -0.694621,0.154376 -1.312063,0.289441 -1.852327,0.405196 -0.578853,0.154376 -1.099821,0.308733 -1.562903,0.463088 -0.19295,0.0772 -0.347308,0.13505 -0.463082,0.17366 l -0.115756,0.0579 h -0.05791 v 0 0.0579 0 c -1.852329,0.73322 -3.453823,1.75586 -4.804479,3.06793 -1.350659,1.31206 -2.489065,2.7399 -3.415229,4.28351 -0.926164,1.5436 -1.69797,3.1644 -2.315414,4.86236 -0.578852,1.69797 -1.041934,3.37664 -1.389245,5.03602 -0.656031,3.31876 -0.906867,6.46386 -0.75251,9.4353 0.07718,1.50502 0.289419,2.83638 0.636742,3.99408 0.11577,0.54027 0.328018,1.13842 0.636736,1.79446 0.308721,0.69463 0.752506,1.33135 1.33136,1.91021 0.771804,0.7718 1.601494,1.23487 2.48907,1.38924 0.887572,0.15438 1.543605,0.23156 1.968097,0.23156 0.540262,0 1.080524,-0.0578 1.620786,-0.17365 0.578855,-0.0772 1.119119,-0.17368 1.620789,-0.28944 0.771805,-0.19294 1.543607,-0.42449 2.315412,-0.69462 0.810394,-0.27013 1.543609,-0.54027 2.199639,-0.8104 0.07718,0.11576 0.173642,0.23156 0.289422,0.34732 0.694625,0.65603 1.408545,1.06121 2.141754,1.2156 0.771805,0.19294 1.312067,0.28941 1.620788,0.28941 0.848984,0.0772 1.794443,0.0193 2.836379,-0.17365 1.968099,-0.38591 4.013381,-1.08053 6.135841,-2.08386 2.08387,-1.04195 4.20633,-2.52768 6.367381,-4.45718 2.19964,-1.89093 3.801132,-4.30281 4.804479,-7.23565 l -9e-6,-0.058 c 0.07718,-0.19295 0.115756,-0.328 0.115756,-0.40518 0.03861,-0.0387 0.0579,-0.0966 0.0579,-0.17367 0.03859,-0.0385 0.0579,-0.0771 0.0579,-0.11577 1.968099,0.19296 3.666069,-0.42449 5.093909,-1.85232 v 0 l 0.0579,-0.0579 10.47723,10.41935 c 1.041938,1.08053 2.315421,1.44714 3.820431,1.09983 1.50501,-0.30874 2.508362,-1.17701 3.010029,-2.60484 l 6.714696,-18.11793 c 0.306105,-0.82594 1.466435,-0.8104 2.083865,-1.15772 3.511715,-1.89091 7.158486,-4.3028 10.940322,-7.23565 3.781836,-2.932864 8.084626,-6.791889 12.908396,-11.577078 4.93955,-4.939538 9.20375,-10.47723 12.79265,-16.613072 3.58889,-6.174425 6.54102,-11.905063 8.85644,-17.191917 1.15772,-2.701322 2.16107,-5.190397 3.01004,-7.467211 11.09928,-27.841927 0.14989,-42.4902807 -30.10032,-30.274013 z m 3.58901,7.525069 18.98639,19.10212 c -0.42449,1.196295 -0.90686,2.45047 -1.44713,3.762538 -0.50168,1.273481 -1.06124,2.604846 -1.67868,3.994088 -2.23824,5.093908 -5.01672,10.477238 -8.33546,16.149991 -3.31876,5.672759 -7.17779,10.708778 -11.57706,15.108059 -4.592233,4.592235 -8.6442,8.219714 -12.155906,10.882434 -3.47312,2.66272 -6.733988,4.843064 -9.782611,6.541044 -2.276817,1.23489 -4.553643,2.33471 -6.83046,3.29946 -2.238232,0.92616 -4.650123,1.91022 -7.235665,2.95215 -0.07721,0 -0.154339,0.0194 -0.231527,0.058 -0.0386,0.0385 -0.09648,0.0578 -0.17365,0.0578 l 8.103933,-21.996412 c 0.61744,-1.659377 0.578855,-3.22228 -0.115754,-4.688708 -0.694628,-1.466426 -1.77515,-2.546951 -3.241575,-3.241577 -1.466426,-0.69462 -3.029331,-0.733208 -4.688708,-0.115756 L 42.225352,86.93315 c 0.30872,-0.810395 0.636738,-1.73656 0.984049,-2.778495 0.11577,-0.308719 0.231546,-0.617441 0.347312,-0.926163 0.11577,-0.308722 0.231544,-0.617442 0.347311,-0.926163 0.578853,-1.659378 1.157705,-3.222281 1.736558,-4.688711 0.617444,-1.505015 1.312068,-3.010032 2.08387,-4.515049 1.466429,-2.932855 3.550301,-6.135841 6.251613,-9.608957 2.739904,-3.473106 6.714692,-7.640847 11.924369,-12.503212 5.132489,-4.746593 10.612296,-8.875743 16.439412,-12.387445 5.827117,-3.550295 11.249037,-6.502444 16.265772,-8.856451 1.312054,-0.61744 2.585532,-1.196293 3.820422,-1.736563 1.23488,-0.540261 2.39259,-1.041934 3.47312,-1.50502 z M 44.88805,115.81788 c 0.03861,0.19294 0.0579,0.42448 0.0579,0.69462 0.03859,0.46309 0.01929,0.88758 -0.0579,1.27346 -0.0386,0.3859 -0.07719,0.71392 -0.115757,0.98405 -0.03859,0.19296 -0.09649,0.38592 -0.173658,0.57887 v 0.0578 0.0579 l -0.0579,0.058 -0.0579,0.11576 c -0.46308,1.46642 -1.33136,2.77849 -2.604836,3.9362 -1.273475,1.19629 -2.701311,2.18034 -4.283511,2.95213 -0.733211,0.34733 -1.447131,0.63676 -2.141755,0.8683 -0.270132,-0.54027 -0.617442,-1.02265 -1.041934,-1.44713 -0.964754,-0.96477 -2.141755,-1.44715 -3.531003,-1.44715 -0.501672,0 -0.964754,0.0579 -1.389245,0.17367 -0.424493,0.11576 -0.771806,0.23155 -1.041938,0.34732 -0.270128,0.11575 -0.617442,0.27012 -1.041937,0.46306 -0.385899,0.19296 -0.791095,0.40519 -1.215589,0.63675 v 0 c -0.3859,0.19296 -0.713917,0.36662 -0.984049,0.52098 -0.347311,0.15435 -0.829687,0.3473 -1.447133,0.57885 -0.617442,0.23154 -1.254181,0.4438 -1.910214,0.63674 -0.03859,-0.34731 -0.07719,-0.75251 -0.115756,-1.21561 -0.0386,-1.00333 -0.0193,-2.14174 0.0579,-3.41521 0.07718,-1.23489 0.250827,-2.52766 0.520966,-3.87831 0.617442,-2.85568 1.524312,-5.28686 2.720609,-7.29354 1.157705,-1.9681 2.527657,-3.26088 4.109857,-3.87833 l -1.1e-5,-0.058 c 0.07718,0 0.154349,-0.0192 0.231532,-0.0578 0.308722,-0.11577 0.656033,-0.21226 1.041937,-0.28944 0.42449,-0.11577 0.926163,-0.23153 1.505018,-0.3473 0.617443,-0.11577 1.273475,-0.19295 1.968099,-0.23153 0.848982,-0.0387 1.659375,-0.0193 2.431181,0.058 z m -12.155909,12.21379 h 0.0579 z"
       id="text2"
       aria-label="🚀"
       sodipodi:nodetypes="scssscscsccccscccccccccccccccccccssscccccssscccccccccccccccscccccscscccccccccsscccccccsscccscccccccsccccccccccccccsssscsscscccccccccccccccc" />
  </g>
</svg>
